HIERARCHY
ROOT Hips
{
	OFFSET 0.000000 114.526802 0.000000
	CHANNELS 6 Xposition Yposition Zposition Xrotation Yrotation Zrotation 
	JOINT Spine
	{
		OFFSET 0.001200 10.871696 -0.828500
		CHANNELS 3 Xrotation Yrotation Zrotation
		JOINT Spine1
		{
			OFFSET 0.001567 9.059769 -0.690400
			CHANNELS 3 Xrotation Yrotation Zrotation
			JOINT Spine1_split
			{
				OFFSET 0.001567 9.059769 -0.690400
				CHANNELS 3 Xrotation Yrotation Zrotation
				JOINT Spine2
				{
					OFFSET 0.001567 9.059769 -0.690400
					CHANNELS 3 Xrotation Yrotation Zrotation
					JOINT Neck
					{
						OFFSET 0.002900 16.307602 -1.242700
						CHANNELS 3 Xrotation Yrotation Zrotation
						JOINT Head
						{
							OFFSET 0.000000 11.176697 5.134500
							CHANNELS 3 Xrotation Yrotation Zrotation
							JOINT HeadTop_End
							{
								OFFSET 0.000000 19.355301 1.980900
								CHANNELS 3 Xrotation Yrotation Zrotation
								End Site
								{
									OFFSET 0.000000 0.000000 0.000000
								}
							}
						}
					}
					JOINT LeftShoulder
					{
						OFFSET 2.953050 7.173500 -0.608000
						CHANNELS 3 Xrotation Yrotation Zrotation
						JOINT LeftShoulder_split
						{
							OFFSET 2.953050 7.173500 -0.608000
							CHANNELS 3 Xrotation Yrotation Zrotation
							JOINT LeftArm
							{
								OFFSET 12.269704 -2.054581 0.053500
								CHANNELS 3 Xrotation Yrotation Zrotation
								JOINT LeftForeArm
								{
									OFFSET 27.894701 0.000000 0.000000
									CHANNELS 3 Xrotation Yrotation Zrotation
									JOINT LeftHand
									{
										OFFSET 28.325504 0.000000 0.000000
										CHANNELS 3 Xrotation Yrotation Zrotation
										JOINT LeftHandThumb1
										{
											OFFSET 3.245346 -0.952271 2.443998
											CHANNELS 3 Xrotation Yrotation Zrotation
											JOINT LeftHandThumb2
											{
												OFFSET 2.585732 -1.492874 1.492873
												CHANNELS 3 Xrotation Yrotation Zrotation
												JOINT LeftHandThumb3
												{
													OFFSET 2.901428 -1.675140 1.675143
													CHANNELS 3 Xrotation Yrotation Zrotation
													JOINT LeftHandThumb4
													{
														OFFSET 2.317482 -1.337997 1.337998
														CHANNELS 3 Xrotation Yrotation Zrotation
														End Site
														{
															OFFSET 0.000000 0.000000 0.000000
														}
													}
												}
											}
										}
										JOINT LeftHandIndex1
										{
											OFFSET 9.644821 -0.286484 2.441105
											CHANNELS 3 Xrotation Yrotation Zrotation
											JOINT LeftHandIndex2
											{
												OFFSET 3.105698 0.000000 0.000000
												CHANNELS 3 Xrotation Yrotation Zrotation
												JOINT LeftHandIndex3
												{
													OFFSET 2.847702 0.000000 0.000000
													CHANNELS 3 Xrotation Yrotation Zrotation
													JOINT LeftHandIndex4
													{
														OFFSET 2.381393 0.000000 0.000000
														CHANNELS 3 Xrotation Yrotation Zrotation
														End Site
														{
															OFFSET 0.000000 0.000000 0.000000
														}
													}
												}
											}
										}
										JOINT LeftHandMiddle1
										{
											OFFSET 9.898598 0.000000 0.000000
											CHANNELS 3 Xrotation Yrotation Zrotation
											JOINT LeftHandMiddle2
											{
												OFFSET 3.757004 0.000000 0.000000
												CHANNELS 3 Xrotation Yrotation Zrotation
												JOINT LeftHandMiddle3
												{
													OFFSET 3.615204 0.000000 0.000000
													CHANNELS 3 Xrotation Yrotation Zrotation
													JOINT LeftHandMiddle4
													{
														OFFSET 3.111748 0.000000 0.000000
														CHANNELS 3 Xrotation Yrotation Zrotation
														End Site
														{
															OFFSET 0.000000 0.000000 0.000000
														}
													}
												}
											}
										}
										JOINT LeftHandRing1
										{
											OFFSET 8.985931 -0.175186 -2.664412
											CHANNELS 3 Xrotation Yrotation Zrotation
											JOINT LeftHandRing2
											{
												OFFSET 3.488800 0.000000 0.000000
												CHANNELS 3 Xrotation Yrotation Zrotation
												JOINT LeftHandRing3
												{
													OFFSET 3.511902 0.000000 0.000000
													CHANNELS 3 Xrotation Yrotation Zrotation
													JOINT LeftHandRing4
													{
														OFFSET 3.128616 0.000000 0.000000
														CHANNELS 3 Xrotation Yrotation Zrotation
														End Site
														{
															OFFSET 0.000000 0.000000 0.000000
														}
													}
												}
											}
										}
										JOINT LeftHandPinky1
										{
											OFFSET 7.803169 -0.191711 -4.366735
											CHANNELS 3 Xrotation Yrotation Zrotation
											JOINT LeftHandPinky2
											{
												OFFSET 3.218903 0.000000 0.000000
												CHANNELS 3 Xrotation Yrotation Zrotation
												JOINT LeftHandPinky3
												{
													OFFSET 2.622398 0.000000 0.000000
													CHANNELS 3 Xrotation Yrotation Zrotation
													JOINT LeftHandPinky4
													{
														OFFSET 2.220100 0.000000 0.000000
														CHANNELS 3 Xrotation Yrotation Zrotation
														End Site
														{
															OFFSET 0.000000 0.000000 0.000000
														}
													}
												}
											}
										}
									}
								}
							}
						}
					}
					JOINT RightShoulder
					{
						OFFSET -2.970200 7.173500 -0.608000
						CHANNELS 3 Xrotation Yrotation Zrotation
						JOINT RightShoulder_split
						{
							OFFSET -2.970200 7.173500 -0.608000
							CHANNELS 3 Xrotation Yrotation Zrotation
							JOINT RightArm
							{
								OFFSET -12.269703 -2.054581 0.053500
								CHANNELS 3 Xrotation Yrotation Zrotation
								JOINT RightForeArm
								{
									OFFSET -27.894701 0.000000 0.000000
									CHANNELS 3 Xrotation Yrotation Zrotation
									JOINT RightHand
									{
										OFFSET -28.325504 0.000000 0.000000
										CHANNELS 3 Xrotation Yrotation Zrotation
										JOINT RightHandThumb1
										{
											OFFSET -3.245377 -0.952286 2.443929
											CHANNELS 3 Xrotation Yrotation Zrotation
											JOINT RightHandThumb2
											{
												OFFSET -2.585732 -1.492874 1.492874
												CHANNELS 3 Xrotation Yrotation Zrotation
												JOINT RightHandThumb3
												{
													OFFSET -2.901443 -1.675156 1.675149
													CHANNELS 3 Xrotation Yrotation Zrotation
													JOINT RightHandThumb4
													{
														OFFSET -2.317451 -1.337982 1.337979
														CHANNELS 3 Xrotation Yrotation Zrotation
														End Site
														{
															OFFSET 0.000000 0.000000 0.000000
														}
													}
												}
											}
										}
										JOINT RightHandIndex1
										{
											OFFSET -9.644806 -0.286407 2.441011
											CHANNELS 3 Xrotation Yrotation Zrotation
											JOINT RightHandIndex2
											{
												OFFSET -3.105698 0.000000 0.000000
												CHANNELS 3 Xrotation Yrotation Zrotation
												JOINT RightHandIndex3
												{
													OFFSET -2.847702 0.000000 0.000000
													CHANNELS 3 Xrotation Yrotation Zrotation
													JOINT RightHandIndex4
													{
														OFFSET -2.381462 0.000000 0.000000
														CHANNELS 3 Xrotation Yrotation Zrotation
														End Site
														{
															OFFSET 0.000000 0.000000 0.000000
														}
													}
												}
											}
										}
										JOINT RightHandMiddle1
										{
											OFFSET -9.898598 0.000000 0.000000
											CHANNELS 3 Xrotation Yrotation Zrotation
											JOINT RightHandMiddle2
											{
												OFFSET -3.757004 0.000000 0.000000
												CHANNELS 3 Xrotation Yrotation Zrotation
												JOINT RightHandMiddle3
												{
													OFFSET -3.615204 0.000000 0.000000
													CHANNELS 3 Xrotation Yrotation Zrotation
													JOINT RightHandMiddle4
													{
														OFFSET -3.111679 0.000000 0.000000
														CHANNELS 3 Xrotation Yrotation Zrotation
														End Site
														{
															OFFSET 0.000000 0.000000 0.000000
														}
													}
												}
											}
										}
										JOINT RightHandRing1
										{
											OFFSET -8.985954 -0.175140 -2.664455
											CHANNELS 3 Xrotation Yrotation Zrotation
											JOINT RightHandRing2
											{
												OFFSET -3.488800 0.000000 0.000000
												CHANNELS 3 Xrotation Yrotation Zrotation
												JOINT RightHandRing3
												{
													OFFSET -3.511902 0.000000 0.000000
													CHANNELS 3 Xrotation Yrotation Zrotation
													JOINT RightHandRing4
													{
														OFFSET -3.128677 0.000000 0.000000
														CHANNELS 3 Xrotation Yrotation Zrotation
														End Site
														{
															OFFSET 0.000000 0.000000 0.000000
														}
													}
												}
											}
										}
										JOINT RightHandPinky1
										{
											OFFSET -7.803070 -0.191666 -4.366796
											CHANNELS 3 Xrotation Yrotation Zrotation
											JOINT RightHandPinky2
											{
												OFFSET -3.218903 0.000000 0.000000
												CHANNELS 3 Xrotation Yrotation Zrotation
												JOINT RightHandPinky3
												{
													OFFSET -2.622398 0.000000 0.000000
													CHANNELS 3 Xrotation Yrotation Zrotation
													JOINT RightHandPinky4
													{
														OFFSET -2.220100 0.000000 0.000000
														CHANNELS 3 Xrotation Yrotation Zrotation
														End Site
														{
															OFFSET 0.000000 0.000000 0.000000
														}
													}
												}
											}
										}
									}
								}
							}
						}
					}
				}
			}
		}
	}
	JOINT LeftUpLeg
	{
		OFFSET 12.499800 -6.039001 1.644900
		CHANNELS 3 Xrotation Yrotation Zrotation
		JOINT LeftLeg
		{
			OFFSET 1.101840 -51.633369 -0.611500
			CHANNELS 3 Xrotation Yrotation Zrotation
			JOINT LeftFoot
			{
				OFFSET -1.101840 -44.274632 -2.366700
				CHANNELS 3 Xrotation Yrotation Zrotation
				JOINT LeftToeBase
				{
					OFFSET 3.515600 -11.857400 16.519300
					CHANNELS 3 Xrotation Yrotation Zrotation
					JOINT LeftToe_End
					{
						OFFSET 1.608299 0.022700 7.850599
						CHANNELS 3 Xrotation Yrotation Zrotation
						End Site
						{
							OFFSET 0.000000 0.000000 0.000000
						}
					}
				}
			}
		}
	}
	JOINT RightUpLeg
	{
		OFFSET -12.521800 -6.040703 1.615200
		CHANNELS 3 Xrotation Yrotation Zrotation
		JOINT RightLeg
		{
			OFFSET -1.103201 -51.597637 -0.797100
			CHANNELS 3 Xrotation Yrotation Zrotation
			JOINT RightFoot
			{
				OFFSET 1.103201 -44.305969 -2.151000
				CHANNELS 3 Xrotation Yrotation Zrotation
				JOINT RightToeBase
				{
					OFFSET -3.515599 -11.857600 16.660101
					CHANNELS 3 Xrotation Yrotation Zrotation
					JOINT RightToe_End
					{
						OFFSET -1.608299 0.022600 7.852201
						CHANNELS 3 Xrotation Yrotation Zrotation
						End Site
						{
							OFFSET 0.000000 0.000000 0.000000
						}
					}
				}
			}
		}
	}
}
MOTION
Frames: 5
Frame Time: 0.016667
9.057372 112.362137 0.813888 -5.388820 -12.026018 -6.900019 0.130234 -0.240663 1.308041 0.648412 0.493584 5.531539 0.000000 0.000000 0.000000 0.642377 1.004613 5.432183 7.043890 -2.655890 -1.899268 26.126262 -12.141506 3.934429 -0.000000 0.000000 0.000000 0.473724 -11.748236 -11.248942 0.000000 0.000000 0.000000 47.840807 -17.029258 -64.898012 -0.000211 -83.541178 -0.000158 11.008766 -38.706477 41.953122 -33.115639 -4.713203 23.091171 0.377361 31.933634 -0.041777 3.350632 14.547056 0.482147 0.000001 0.000002 -0.000001 1.030261 -6.441665 -17.393084 0.267449 2.471089 -16.876901 0.034619 0.816838 -10.169825 0.000002 0.000001 0.000001 0.013050 4.853465 -11.088663 0.541780 3.292223 -25.432933 0.172631 1.497147 -12.349669 -0.000000 0.000003 0.000001 0.677408 8.570526 -10.500118 0.453229 2.073533 -17.965363 0.189804 0.836409 -8.646191 0.000001 -0.000001 -0.000003 1.393773 17.628484 -7.094471 0.043063 1.171522 -13.428301 0.038827 1.310121 -4.509071 0.000000 -0.000003 -0.000000 0.544575 4.353652 15.252215 0.000000 0.000000 0.000000 57.785559 2.907386 44.667774 0.079946 90.233936 -0.080695 -0.423112 38.771623 -34.999631 -10.273250 0.612251 -22.395524 -0.918985 -26.980366 3.204012 2.980850 -12.496595 0.447286 0.000000 -0.000001 -0.000000 7.765147 3.013248 35.763055 0.100380 -1.763311 9.669273 -0.193117 -0.216338 13.843958 -0.000001 0.000000 0.000001 0.468058 -7.156811 19.564628 0.591333 -3.398691 26.609725 0.225383 -1.719543 16.217871 -0.000001 -0.000000 -0.000002 1.123056 -10.879595 12.033314 0.992088 -3.039610 29.060225 -0.157941 0.035005 17.817930 0.000000 0.000002 -0.000001 -3.299038 -21.540636 -8.642869 0.250670 -2.063042 22.526136 -0.418203 1.503891 6.376785 0.000000 0.000000 0.000000 -10.868852 14.359754 13.430221 26.935473 9.925033 1.137772 -10.184333 15.542305 -6.992690 -2.067452 0.000010 0.000001 -0.000000 -0.000001 -0.000000 9.202201 -3.179650 9.547376 4.139231 9.973009 2.719941 -8.726561 -18.135797 -10.102341 -2.177552 -0.000009 -0.000000 0.000000 -0.000001 -0.000000 
8.689308 112.199081 0.710021 -5.491416 -12.510268 -7.382172 0.144173 -0.343283 1.583674 0.662778 0.473902 5.578773 0.000000 0.000000 0.000000 0.656000 0.985290 5.479699 6.982831 -2.571672 -1.949238 25.959869 -11.770281 3.486951 -0.000000 0.000001 -0.000000 0.473725 -11.748237 -11.248940 0.000000 0.000000 0.000000 47.840796 -17.029248 -64.898012 0.000086 -83.584788 0.000102 10.553651 -38.601258 41.247977 -33.115643 -4.713199 23.091157 0.377369 31.933624 -0.041773 3.350609 14.547044 0.482141 0.000000 -0.000000 0.000001 1.032326 -6.433013 -17.465074 0.267435 2.471101 -16.876895 0.034654 0.816824 -10.169839 0.000000 0.000001 0.000001 0.011966 4.865913 -11.198937 0.541792 3.292228 -25.432966 0.172628 1.497147 -12.349670 0.000000 -0.000001 0.000001 0.683537 8.581583 -10.611379 0.453233 2.073543 -17.965474 0.189796 0.836403 -8.646201 0.000000 -0.000001 0.000002 1.393881 17.627863 -7.090829 0.043068 1.171538 -13.428300 0.038844 1.310116 -4.509057 -0.000001 -0.000000 -0.000000 0.544576 4.353654 15.252214 0.000000 0.000000 0.000000 57.785900 2.892798 44.657795 -0.083078 90.238574 0.081740 -0.473305 38.795628 -34.972874 -10.273253 0.612263 -22.395523 -0.918987 -26.980378 3.204000 2.980844 -12.496585 0.447288 -0.000000 0.000002 0.000003 7.765151 3.013249 35.763055 0.100369 -1.763329 9.669285 -0.193119 -0.216347 13.843958 -0.000001 -0.000000 0.000000 0.468061 -7.156817 19.564611 0.591352 -3.398688 26.609720 0.225358 -1.719558 16.217902 0.000001 -0.000002 0.000001 1.123047 -10.879602 12.033322 0.992085 -3.039622 29.060215 -0.157926 0.035018 17.817920 0.000002 -0.000000 -0.000002 -3.299038 -21.540620 -8.642866 0.250673 -2.063057 22.526121 -0.418181 1.503891 6.376771 0.000000 -0.000001 0.000001 -11.463251 14.647247 14.397940 27.922889 9.919437 1.197214 -10.525557 15.490097 -7.408607 -2.077329 0.000012 0.000001 -0.000000 -0.000000 0.000000 8.999290 -3.097079 9.992983 4.707543 9.970638 3.055498 -9.044861 -17.635408 -10.540042 -2.287473 0.000005 0.000002 0.000000 -0.000001 -0.000000 
8.338225 112.023247 0.621109 -5.605041 -12.980842 -7.825793 0.176954 -0.451549 1.831966 0.681759 0.452433 5.625657 0.000000 0.000000 0.000000 0.674221 0.964128 5.526886 6.909788 -2.493898 -1.998122 25.787888 -11.427443 3.051649 0.000001 -0.000001 -0.000001 0.473725 -11.748232 -11.248941 0.000000 0.000000 0.000000 47.840814 -17.029265 -64.898005 -0.000298 -83.625059 -0.000243 10.081333 -38.503395 40.294943 -33.115657 -4.713213 23.091153 0.377363 31.933644 -0.041773 3.350617 14.547058 0.482158 0.000002 0.000005 0.000001 1.034456 -6.424264 -17.537885 0.267466 2.471083 -16.876877 0.034603 0.816849 -10.169832 0.000000 -0.000001 -0.000001 0.010929 4.878525 -11.310510 0.541772 3.292225 -25.433044 0.172627 1.497163 -12.349668 -0.000001 0.000001 0.000000 0.689767 8.592761 -10.723972 0.453242 2.073557 -17.965566 0.189775 0.836412 -8.646202 0.000000 -0.000000 -0.000002 1.394000 17.627291 -7.087506 0.043078 1.171528 -13.428296 0.038820 1.310117 -4.509083 -0.000000 -0.000002 -0.000000 0.544574 4.353654 15.252217 0.000000 0.000000 0.000000 57.786228 2.880524 44.649387 -0.034165 90.242939 0.033964 -0.515649 38.815863 -34.950317 -10.273254 0.612254 -22.395541 -0.918986 -26.980378 3.204017 2.980843 -12.496591 0.447288 0.000001 0.000000 0.000001 7.765138 3.013281 35.763055 0.100369 -1.763332 9.669272 -0.193140 -0.216360 13.843963 0.000001 0.000001 0.000007 0.468043 -7.156805 19.564619 0.591320 -3.398716 26.609725 0.225383 -1.719547 16.217900 -0.000001 -0.000000 -0.000003 1.123038 -10.879568 12.033311 0.992103 -3.039606 29.060218 -0.157934 0.035023 17.817930 0.000001 0.000003 -0.000003 -3.299055 -21.540624 -8.642877 0.250684 -2.063053 22.526126 -0.418193 1.503879 6.376776 0.000001 -0.000001 -0.000001 -12.017067 14.907055 15.309604 28.891103 9.912582 1.249143 -10.871759 15.455642 -7.808528 -2.055770 -0.000014 0.000002 0.000000 0.000000 0.000000 8.706823 -3.078166 10.378977 5.530013 9.968580 3.388950 -9.505337 -17.097430 -10.981391 -2.412640 0.000001 0.000001 -0.000000 0.000001 -0.000000 
8.046103 111.882683 0.535869 -5.730662 -13.433578 -8.205238 0.222502 -0.551882 2.033033 0.701955 0.432093 5.667753 0.000000 0.000000 0.000000 0.693727 0.944022 5.569279 6.840222 -2.422807 -2.045725 25.636668 -11.115831 2.651720 -0.000003 -0.000000 0.000001 0.473724 -11.748234 -11.248939 0.000000 0.000000 0.000000 47.840814 -17.029277 -64.898005 -0.000001 -83.662359 -0.000012 9.600719 -38.407369 39.150450 -33.115636 -4.713207 23.091179 0.377373 31.933624 -0.041788 3.350617 14.547041 0.482162 -0.000001 0.000003 0.000001 1.036619 -6.415463 -17.611557 0.267450 2.471105 -16.876889 0.034621 0.816840 -10.169837 0.000000 0.000001 0.000001 0.009881 4.891265 -11.423372 0.541798 3.292233 -25.433079 0.172634 1.497148 -12.349673 0.000000 0.000001 -0.000001 0.696073 8.604031 -10.837849 0.453234 2.073582 -17.965696 0.189814 0.836401 -8.646197 0.000000 0.000001 -0.000003 1.394139 17.626714 -7.084465 0.043049 1.171540 -13.428318 0.038841 1.310120 -4.509065 0.000002 -0.000003 -0.000002 0.544577 4.353654 15.252210 0.000000 0.000000 0.000000 57.786453 2.870678 44.642646 -0.040602 90.245391 0.040904 -0.549587 38.832054 -34.932179 -10.273274 0.612244 -22.395519 -0.918976 -26.980364 3.204020 2.980847 -12.496588 0.447287 -0.000002 0.000002 -0.000001 7.765139 3.013243 35.763045 0.100364 -1.763309 9.669298 -0.193120 -0.216341 13.843967 -0.000000 -0.000001 -0.000004 0.468040 -7.156820 19.564621 0.591335 -3.398688 26.609731 0.225362 -1.719555 16.217886 0.000000 0.000002 0.000001 1.123035 -10.879576 12.033328 0.992099 -3.039626 29.060215 -0.157938 0.035017 17.817923 -0.000000 0.000002 -0.000002 -3.299063 -21.540643 -8.642869 0.250671 -2.063059 22.526135 -0.418181 1.503904 6.376756 0.000000 -0.000002 -0.000000 -12.419097 15.138110 16.064851 29.628521 9.905694 1.301667 -11.120076 15.477912 -8.147014 -1.996876 -0.000003 -0.000003 0.000000 -0.000000 0.000000 8.563328 -3.069504 10.679863 6.045317 9.968256 3.696839 -9.773850 -16.571241 -11.337515 -2.541418 0.000008 -0.000002 0.000000 -0.000002 -0.000000 
7.794015 111.784042 0.470238 -5.865323 -13.867574 -8.498445 0.271556 -0.629871 2.171670 0.719506 0.416003 5.700874 0.000000 0.000000 0.000000 0.710738 0.928094 5.602633 6.789635 -2.357698 -2.092621 25.533472 -10.835617 2.310854 -0.000002 -0.000000 -0.000000 0.473724 -11.748229 -11.248938 0.000000 0.000000 0.000000 47.840800 -17.029250 -64.898012 -0.000190 -83.696865 -0.000114 9.119834 -38.309274 37.870288 -33.115667 -4.713199 23.091167 0.377349 31.933617 -0.041782 3.350608 14.547065 0.482154 -0.000001 0.000004 0.000000 1.038798 -6.406569 -17.686035 0.267452 2.471091 -16.876889 0.034621 0.816837 -10.169840 -0.000001 0.000000 0.000001 0.008840 4.904133 -11.537453 0.541791 3.292240 -25.433131 0.172634 1.497150 -12.349677 0.000000 -0.000002 -0.000000 0.702475 8.615397 -10.952976 0.453260 2.073574 -17.965788 0.189776 0.836403 -8.646228 0.000000 -0.000002 -0.000002 1.394256 17.626179 -7.081730 0.043060 1.171530 -13.428304 0.038838 1.310120 -4.509069 0.000001 -0.000000 -0.000001 0.544575 4.353655 15.252212 0.000000 0.000000 0.000000 57.786645 2.863449 44.637697 0.143672 90.247638 -0.142378 -0.574528 38.843948 -34.918885 -10.273250 0.612252 -22.395536 -0.918986 -26.980383 3.204002 2.980836 -12.496575 0.447296 0.000000 -0.000000 -0.000000 7.765164 3.013250 35.763038 0.100368 -1.763314 9.669279 -0.193105 -0.216340 13.843957 -0.000002 0.000001 0.000004 0.468054 -7.156809 19.564616 0.591338 -3.398700 26.609720 0.225364 -1.719554 16.217883 -0.000000 0.000000 -0.000000 1.123047 -10.879604 12.033304 0.992103 -3.039601 29.060215 -0.157955 0.035004 17.817932 0.000001 0.000001 0.000003 -3.299049 -21.540619 -8.642874 0.250683 -2.063046 22.526131 -0.418192 1.503884 6.376777 0.000000 -0.000003 0.000001 -12.627546 15.320210 16.624044 30.101614 9.900908 1.361632 -11.254155 15.594642 -8.438899 -1.903331 0.000004 0.000000 0.000000 0.000000 0.000000 8.573356 -3.058735 10.891776 6.266514 9.967713 3.956247 -9.874240 -16.070679 -11.608578 -2.661467 -0.000001 -0.000002 -0.000000 0.000002 -0.000000 
